# This file uses centimeters as units for non-parametric coordinates.

mtllib BarLow.mtl
g default
v 27.346151 14.009501 -6.346152
v 27.000000 14.009501 -6.489532
v 26.653851 14.009501 -6.346152
v 26.510468 14.009501 -6.000000
v 26.653851 14.009501 -5.653848
v 27.000000 14.009501 -5.510468
v 27.346151 14.009501 -5.653848
v 27.489532 14.009501 -6.000000
v 27.346151 28.018915 -6.346152
v 27.000000 28.018915 -6.489532
v 26.653851 28.018915 -6.346152
v 26.510468 28.018915 -6.000000
v 26.653851 28.018915 -5.653848
v 27.000000 28.018915 -5.510468
v 27.346151 28.018915 -5.653848
v 27.489532 28.018915 -6.000000
v 2.346152 14.009501 -3.346152
v 2.000000 14.009501 -3.489532
v 1.653850 14.009501 -3.346152
v 1.510468 14.009501 -3.000000
v 1.653850 14.009501 -2.653848
v 2.000000 14.009501 -2.510468
v 2.346152 14.009501 -2.653848
v 2.489532 14.009501 -3.000000
v 2.346152 28.018915 -3.346152
v 2.000000 28.018915 -3.489532
v 1.653850 28.018915 -3.346152
v 1.510468 28.018915 -3.000000
v 1.653850 28.018915 -2.653848
v 2.000000 28.018915 -2.510468
v 2.346152 28.018915 -2.653848
v 2.489532 28.018915 -3.000000
v -0.653848 14.009501 2.653848
v -1.000000 14.009501 2.510468
v -1.346150 14.009501 2.653848
v -1.489532 14.009501 3.000000
v -1.346150 14.009501 3.346152
v -1.000000 14.009501 3.489532
v -0.653848 14.009501 3.346152
v -0.510468 14.009501 3.000000
v -0.653848 28.018915 2.653848
v -1.000000 28.018915 2.510468
v -1.346150 28.018915 2.653848
v -1.489532 28.018915 3.000000
v -1.346150 28.018915 3.346152
v -1.000000 28.018915 3.489532
v -0.653848 28.018915 3.346152
v -0.510468 28.018915 3.000000
v -5.501478 40.515686 -0.000001
v 2.750741 40.515686 4.764420
v 2.750738 40.515686 -4.764419
v -5.501478 29.512735 -0.000001
v 2.750741 29.512735 4.764420
v 2.750738 29.512735 -4.764419
v 30.436310 40.515686 2.218544
v 27.970066 40.515686 -6.985619
v 27.970066 29.512735 -6.985619
v 30.436310 29.512735 2.218544
v -6.348759 40.515686 -21.077049
v -15.552905 40.515686 -18.610806
v -15.552905 29.512735 -18.610806
v -6.348759 29.512735 -21.077049
v 2.750738 27.163652 -4.764419
v -5.501478 27.163652 -0.000001
v 2.750741 27.163652 4.764420
v 30.436310 27.163652 2.218544
v 27.970066 27.163652 -6.985619
v -6.348759 27.163652 -21.077049
v -15.552905 27.163652 -18.610806
v -6.437836 29.512735 0.910135
v 2.473587 29.512735 6.027823
v 2.473587 27.163652 6.027823
v -6.437836 27.163652 0.910135
v 30.560598 29.512735 3.570005
v 30.560598 27.163652 3.570005
v -16.747040 29.512735 -17.965872
v -16.747040 27.163652 -17.965872
v 4.344568 38.915688 -4.904796
v 4.344568 31.112734 -4.904796
v 26.376228 31.112734 -6.845240
v 26.376228 38.915688 -6.845240
v 1.971294 38.915688 -6.161726
v 1.971294 31.112734 -6.161726
v -5.569314 38.915688 -19.679743
v -5.569314 31.112734 -19.679743
v 4.976268 38.915688 2.267441
v 4.976268 31.112734 2.267441
v 27.007935 31.112734 0.326995
v 27.007935 38.915688 0.326995
v -4.316589 38.915688 -2.654227
v -4.316589 31.112734 -2.654227
v -11.857197 38.915688 -16.172243
v -11.857197 31.112734 -16.172243
v -5.501478 41.547821 -0.000001
v 2.750741 41.547821 4.764420
v 2.750738 41.547821 -4.764419
v 27.970066 41.547821 -6.985619
v 30.436310 41.547821 2.218544
v -15.552905 41.547821 -18.610806
v -6.348759 41.547821 -21.077049
v -6.246761 40.515686 0.724411
v 2.525908 40.515686 5.789313
v -6.246762 41.547821 0.724410
v 2.525908 41.547821 5.789313
v 30.527880 40.515686 3.214343
v 30.527880 41.547821 3.214343
v -16.432779 40.515686 -18.135599
v -16.432779 41.547821 -18.135599
v -5.501478 1.032136 -0.000001
v 2.750741 1.032136 4.764420
v 2.750738 1.032136 -4.764419
v -5.501478 12.035089 -0.000001
v 2.750741 12.035089 4.764420
v 2.750738 12.035089 -4.764419
v 30.436310 1.032136 2.218544
v 27.970066 1.032136 -6.985619
v 27.970066 12.035089 -6.985619
v 30.436310 12.035089 2.218544
v -6.348759 1.032136 -21.077049
v -15.552905 1.032136 -18.610806
v -15.552905 12.035089 -18.610806
v -6.348759 12.035089 -21.077049
v 2.750738 14.384169 -4.764419
v -5.501478 14.384169 -0.000001
v 2.750741 14.384169 4.764420
v 30.436310 14.384169 2.218544
v 27.970066 14.384169 -6.985619
v -6.348759 14.384169 -21.077049
v -15.552905 14.384169 -18.610806
v -6.437836 12.035089 0.910135
v 2.473587 12.035089 6.027823
v 2.473587 14.384169 6.027823
v -6.437836 14.384169 0.910135
v 30.560598 12.035089 3.570005
v 30.560598 14.384169 3.570005
v -16.747040 12.035089 -17.965872
v -16.747040 14.384169 -17.965872
v 4.344568 2.632135 -4.904796
v 4.344568 10.435089 -4.904796
v 26.376228 10.435089 -6.845240
v 26.376228 2.632135 -6.845240
v 1.971294 2.632135 -6.161726
v 1.971294 10.435089 -6.161726
v -5.569314 2.632135 -19.679743
v -5.569314 10.435089 -19.679743
v 4.976268 2.632135 2.267441
v 4.976268 10.435089 2.267441
v 27.007935 10.435089 0.326995
v 27.007935 2.632135 0.326995
v -4.316589 2.632135 -2.654227
v -4.316589 10.435089 -2.654227
v -11.857197 2.632135 -16.172243
v -11.857197 10.435089 -16.172243
v -5.501478 0.000000 -0.000001
v 2.750741 0.000000 4.764420
v 2.750738 0.000000 -4.764419
v 27.970066 0.000000 -6.985619
v 30.436310 0.000000 2.218544
v -15.552905 0.000000 -18.610806
v -6.348759 0.000000 -21.077049
v -6.246761 1.032136 0.724411
v 2.525908 1.032136 5.789313
v -6.246762 0.000000 0.724410
v 2.525908 0.000000 5.789313
v 30.527880 1.032136 3.214343
v 30.527880 0.000000 3.214343
v -16.432779 1.032136 -18.135599
v -16.432779 0.000000 -18.135599
v 29.346151 14.009501 2.653848
v 29.000000 14.009501 2.510468
v 28.653851 14.009501 2.653848
v 28.510468 14.009501 3.000000
v 28.653851 14.009501 3.346152
v 29.000000 14.009501 3.489532
v 29.346151 14.009501 3.346152
v 29.489532 14.009501 3.000000
v 29.346151 28.018915 2.653848
v 29.000000 28.018915 2.510468
v 28.653851 28.018915 2.653848
v 28.510468 28.018915 3.000000
v 28.653851 28.018915 3.346152
v 29.000000 28.018915 3.489532
v 29.346151 28.018915 3.346152
v 29.489532 28.018915 3.000000
v -14.653848 14.009501 -17.346151
v -15.000000 14.009501 -17.489532
v -15.346150 14.009501 -17.346151
v -15.489532 14.009501 -17.000000
v -15.346150 14.009501 -16.653849
v -15.000000 14.009501 -16.510468
v -14.653848 14.009501 -16.653849
v -14.510468 14.009501 -17.000000
v -14.653848 28.018915 -17.346151
v -15.000000 28.018915 -17.489532
v -15.346150 28.018915 -17.346151
v -15.489532 28.018915 -17.000000
v -15.346150 28.018915 -16.653849
v -15.000000 28.018915 -16.510468
v -14.653848 28.018915 -16.653849
v -14.510468 28.018915 -17.000000
v -6.653848 14.009501 -20.346151
v -7.000000 14.009501 -20.489532
v -7.346150 14.009501 -20.346151
v -7.489532 14.009501 -20.000000
v -7.346150 14.009501 -19.653849
v -7.000000 14.009501 -19.510468
v -6.653848 14.009501 -19.653849
v -6.510468 14.009501 -20.000000
v -6.653848 28.018915 -20.346151
v -7.000000 28.018915 -20.489532
v -7.346150 28.018915 -20.346151
v -7.489532 28.018915 -20.000000
v -7.346150 28.018915 -19.653849
v -7.000000 28.018915 -19.510468
v -6.653848 28.018915 -19.653849
v -6.510468 28.018915 -20.000000
vt 0.547776 0.967851
vt 0.665486 0.967851
vt 0.665486 0.946521
vt 0.547776 0.964804
vt 0.665486 0.964804
vt 0.547776 0.961757
vt 0.665486 0.961757
vt 0.547776 0.958709
vt 0.665486 0.958709
vt 0.547776 0.955662
vt 0.665486 0.955662
vt 0.547776 0.952615
vt 0.665486 0.952615
vt 0.547776 0.949568
vt 0.665486 0.949568
vt 0.547776 0.946521
vt 0.547776 0.943474
vt 0.665486 0.943474
vt 0.728787 0.947770
vt 0.728787 0.944723
vt 0.846497 0.944723
vt 0.846497 0.947770
vt 0.728787 0.969100
vt 0.728787 0.966052
vt 0.846497 0.966052
vt 0.846497 0.969100
vt 0.728787 0.963005
vt 0.846497 0.963005
vt 0.728787 0.959958
vt 0.846497 0.959958
vt 0.728787 0.956911
vt 0.846497 0.956911
vt 0.728787 0.953864
vt 0.846497 0.953864
vt 0.728787 0.950817
vt 0.846497 0.950817
vt 0.202718 0.939965
vt 0.202718 0.936918
vt 0.320429 0.936918
vt 0.320429 0.939965
vt 0.202718 0.961294
vt 0.202718 0.958247
vt 0.320429 0.958247
vt 0.320429 0.961294
vt 0.202718 0.955200
vt 0.320429 0.955200
vt 0.202718 0.952153
vt 0.320429 0.952153
vt 0.202718 0.949106
vt 0.320429 0.949106
vt 0.202718 0.946059
vt 0.320429 0.946059
vt 0.202718 0.943012
vt 0.320429 0.943012
vt 0.321387 0.317807
vt 0.321387 0.248596
vt 0.229115 0.248596
vt 0.229115 0.317807
vt 0.829525 0.829664
vt 0.753299 0.829664
vt 0.753299 0.920788
vt 0.829525 0.920788
vt 0.662792 0.929345
vt 0.739139 0.929345
vt 0.739139 0.838082
vt 0.662792 0.838082
vt 0.009409 0.555095
vt 0.048653 0.623070
vt 0.087904 0.555095
vt 0.594855 0.231993
vt 0.516310 0.231993
vt 0.555581 0.300015
vt 0.563087 0.307734
vt 0.605270 0.234277
vt 0.106199 0.347355
vt 0.030380 0.327040
vt 0.657135 0.730840
vt 0.721105 0.730840
vt 0.721105 0.550225
vt 0.657135 0.550225
vt 0.573868 0.003783
vt 0.498003 0.024110
vt 0.585010 0.002755
vt 0.321387 0.016404
vt 0.229115 0.016404
vt 0.201958 0.705870
vt 0.222271 0.630051
vt 0.821212 0.650231
vt 0.725016 0.650231
vt 0.725016 0.812943
vt 0.821212 0.812943
vt 0.894714 0.942009
vt 0.962710 0.942009
vt 0.962710 0.824209
vt 0.894714 0.824209
vt 0.923573 0.604039
vt 0.923573 0.530316
vt 0.904140 0.530316
vt 0.904140 0.604039
vt 0.923573 0.297952
vt 0.904140 0.297952
vt 0.363428 0.372796
vt 0.363428 0.579177
vt 0.382653 0.579177
vt 0.382653 0.372796
vt 0.021448 0.822790
vt 0.021448 0.680552
vt 0.000963 0.680552
vt 0.000963 0.822790
vt 0.739139 0.818596
vt 0.662792 0.818596
vt 0.749040 0.838082
vt 0.749040 0.818596
vt 0.368031 0.289480
vt 0.368031 0.127787
vt 0.347906 0.127787
vt 0.347906 0.289480
vt 0.775497 0.607093
vt 0.737089 0.540566
vt 0.726901 0.542800
vt 0.768157 0.614639
vt 0.757610 0.317383
vt 0.746718 0.316384
vt 0.829525 0.940243
vt 0.840720 0.940243
vt 0.840720 0.920788
vt 0.753299 0.940243
vt 0.925525 0.688118
vt 0.920324 0.697747
vt 0.402174 0.382869
vt 0.407490 0.392713
vt 0.381846 0.307000
vt 0.273385 0.579177
vt 0.350336 0.566132
vt 0.286479 0.566132
vt 0.350336 0.385839
vt 0.273385 0.372796
vt 0.286479 0.385839
vt 0.117389 0.822790
vt 0.103436 0.810604
vt 0.035399 0.810604
vt 0.117389 0.680552
vt 0.103436 0.692735
vt 0.035399 0.692735
vt 0.059416 0.903139
vt 0.059416 0.966017
vt 0.117210 0.966017
vt 0.117210 0.903139
vt 0.706354 0.546669
vt 0.722221 0.366517
vt 0.663573 0.361351
vt 0.647708 0.541504
vt 0.177089 0.985892
vt 0.177089 0.923519
vt 0.119755 0.923519
vt 0.119755 0.985892
vt 0.410130 0.068061
vt 0.425999 0.248217
vt 0.484645 0.243050
vt 0.468780 0.062897
vt 0.059416 0.830600
vt 0.059416 0.897218
vt 0.113099 0.897218
vt 0.113099 0.830600
vt 0.129181 0.739971
vt 0.190576 0.850037
vt 0.241775 0.821476
vt 0.180380 0.711412
vt 0.115983 0.829716
vt 0.115983 0.896334
vt 0.169662 0.896334
vt 0.169662 0.829716
vt 0.635444 0.733517
vt 0.574173 0.843353
vt 0.625262 0.871852
vt 0.686532 0.762015
vt 0.325278 0.240293
vt 0.325278 0.311894
vt 0.333700 0.311894
vt 0.333700 0.240293
vt 0.264941 0.372796
vt 0.264941 0.579177
vt 0.829525 0.821117
vt 0.753299 0.821117
vt 0.325278 0.011748
vt 0.333700 0.011748
vt 0.928653 0.146679
vt 0.928653 0.300443
vt 0.937069 0.300443
vt 0.937069 0.146679
vt 0.662792 0.937906
vt 0.739139 0.937906
vt 0.126388 0.822790
vt 0.126388 0.680552
vt 0.575787 0.542515
vt 0.537412 0.608988
vt 0.543248 0.614990
vt 0.584041 0.544326
vt 0.000964 0.556945
vt 0.042687 0.629210
vt 0.555279 0.319508
vt 0.563303 0.318772
vt 0.022174 0.326287
vt 0.837773 0.829664
vt 0.837773 0.821117
vt 0.387502 0.689952
vt 0.391327 0.697040
vt 0.746433 0.937906
vt 0.746433 0.929345
vt 0.198043 0.713119
vt 0.806094 0.541794
vt 0.806094 0.472268
vt 0.898795 0.472268
vt 0.898795 0.541794
vt 0.468629 0.826792
vt 0.545998 0.826792
vt 0.545998 0.919281
vt 0.468629 0.919281
vt 0.454314 0.929864
vt 0.376816 0.929864
vt 0.376816 0.837220
vt 0.454314 0.837220
vt 0.784018 0.232500
vt 0.744634 0.300717
vt 0.705249 0.232500
vt 0.011408 0.232205
vt 0.090177 0.232205
vt 0.050793 0.300422
vt 0.043269 0.308162
vt 0.000964 0.234496
vt 0.686888 0.024027
vt 0.762973 0.003640
vt 0.651999 0.727255
vt 0.587372 0.727255
vt 0.587372 0.544780
vt 0.651999 0.544780
vt 0.032453 0.003345
vt 0.108538 0.023732
vt 0.021281 0.002318
vt 0.806094 0.239013
vt 0.898795 0.239013
vt 0.590789 0.383806
vt 0.570402 0.307720
vt 0.227231 0.585548
vt 0.324196 0.585548
vt 0.324196 0.749559
vt 0.227231 0.749559
vt 0.315108 0.933066
vt 0.246086 0.933066
vt 0.246086 0.813490
vt 0.315108 0.813490
vt 0.941852 0.624624
vt 0.941852 0.549507
vt 0.961653 0.549507
vt 0.961653 0.624624
vt 0.941852 0.312754
vt 0.961653 0.312754
vt 0.816122 0.024644
vt 0.816122 0.233520
vt 0.796666 0.233520
vt 0.796666 0.024644
vt 0.563727 0.811599
vt 0.563727 0.667303
vt 0.584506 0.667303
vt 0.584506 0.811599
vt 0.376816 0.817441
vt 0.454314 0.817441
vt 0.366762 0.837220
vt 0.366762 0.817441
vt 0.941852 0.307431
vt 0.941852 0.140872
vt 0.962580 0.140872
vt 0.962580 0.307431
vt 0.367876 0.299101
vt 0.407260 0.230885
vt 0.417704 0.233176
vt 0.375399 0.306841
vt 0.386215 0.002025
vt 0.397387 0.000998
vt 0.468629 0.939027
vt 0.457269 0.939027
vt 0.457269 0.919281
vt 0.545998 0.939027
vt 0.214032 0.382190
vt 0.219363 0.392061
vt 0.204637 0.383511
vt 0.199306 0.393382
vt 0.225024 0.307425
vt 0.907253 0.233520
vt 0.829374 0.220319
vt 0.894001 0.220319
vt 0.829374 0.037845
vt 0.907253 0.024644
vt 0.894001 0.037845
vt 0.466399 0.811599
vt 0.480552 0.799239
vt 0.549574 0.799239
vt 0.466399 0.667303
vt 0.480552 0.679663
vt 0.549574 0.679663
vt 0.233838 0.852674
vt 0.233838 0.917301
vt 0.174435 0.917301
vt 0.174435 0.852674
vt 0.165964 0.268159
vt 0.149923 0.086037
vt 0.209212 0.080815
vt 0.225252 0.262937
vt 0.549661 0.933406
vt 0.549661 0.868779
vt 0.609064 0.868779
vt 0.609064 0.933406
vt 0.683442 0.065889
vt 0.667401 0.248011
vt 0.608113 0.242789
vt 0.624153 0.060667
vt 0.056585 0.830268
vt 0.056585 0.899290
vt 0.000964 0.899290
vt 0.000964 0.830268
vt 0.416964 0.718549
vt 0.354631 0.830294
vt 0.302653 0.801299
vt 0.364986 0.689554
vt 0.171603 0.008089
vt 0.171603 0.077111
vt 0.115983 0.077111
vt 0.115983 0.008089
vt 0.878813 0.680408
vt 0.941146 0.792153
vt 0.889168 0.821147
vt 0.826835 0.709402
vt 0.937355 0.544277
vt 0.937355 0.618235
vt 0.928654 0.618235
vt 0.928654 0.544277
vt 0.915801 0.024644
vt 0.915801 0.233520
vt 0.468629 0.818116
vt 0.545998 0.818116
vt 0.937355 0.308207
vt 0.928654 0.308207
vt 0.345689 0.138114
vt 0.345689 0.304318
vt 0.336593 0.304318
vt 0.336593 0.138114
vt 0.454314 0.938554
vt 0.376816 0.938554
vt 0.457269 0.811599
vt 0.457269 0.667303
vt 0.771199 0.493316
vt 0.810583 0.561532
vt 0.804595 0.567693
vt 0.762727 0.495175
vt 0.792490 0.234359
vt 0.750622 0.306877
vt 0.792244 0.264457
vt 0.784012 0.263700
vt 0.771205 0.002884
vt 0.460259 0.826792
vt 0.460259 0.818116
vt 0.964427 0.644621
vt 0.960499 0.651894
vt 0.369408 0.938554
vt 0.369408 0.929864
vt 0.594718 0.391079
vt 0.304538 0.977673
vt 0.304538 0.974625
vt 0.422248 0.974625
vt 0.422248 0.977673
vt 0.304538 0.999002
vt 0.304538 0.995955
vt 0.422248 0.995955
vt 0.422248 0.999002
vt 0.304538 0.992908
vt 0.422248 0.992908
vt 0.304538 0.989861
vt 0.422248 0.989861
vt 0.304538 0.986814
vt 0.422248 0.986814
vt 0.304538 0.983767
vt 0.422248 0.983767
vt 0.304538 0.980720
vt 0.422248 0.980720
vt 0.325280 0.946870
vt 0.325280 0.943823
vt 0.442990 0.943823
vt 0.442990 0.946870
vt 0.325280 0.968200
vt 0.325280 0.965153
vt 0.442990 0.965153
vt 0.442990 0.968200
vt 0.325280 0.962105
vt 0.442990 0.962105
vt 0.325280 0.959058
vt 0.442990 0.959058
vt 0.325280 0.956011
vt 0.442990 0.956011
vt 0.325280 0.952964
vt 0.442990 0.952964
vt 0.325280 0.949917
vt 0.442990 0.949917
vt 0.181977 0.969498
vt 0.181977 0.966451
vt 0.299687 0.966451
vt 0.299687 0.969498
vt 0.181977 0.990828
vt 0.181977 0.987781
vt 0.299687 0.987781
vt 0.299687 0.990828
vt 0.181977 0.984734
vt 0.299687 0.984734
vt 0.181977 0.981687
vt 0.299687 0.981687
vt 0.181977 0.978639
vt 0.299687 0.978639
vt 0.181977 0.975592
vt 0.299687 0.975592
vt 0.181977 0.972545
vt 0.299687 0.972545
vn 0.707107 0.000000 -0.707107
vn 0.000000 0.000000 -1.000000
vn 0.000000 0.000000 -1.000000
vn 0.707107 0.000000 -0.707107
vn -0.707107 0.000000 -0.707107
vn -0.707107 0.000000 -0.707107
vn -1.000000 0.000000 0.000000
vn -1.000000 0.000000 0.000000
vn -0.707106 0.000000 0.707107
vn -0.707106 0.000000 0.707107
vn -0.000000 0.000000 1.000000
vn -0.000000 0.000000 1.000000
vn 0.707106 0.000000 0.707107
vn 0.707106 0.000000 0.707107
vn 1.000000 0.000000 0.000000
vn 1.000000 0.000000 0.000000
vn 0.707107 0.000000 -0.707107
vn 0.000000 0.000000 -1.000000
vn 0.000000 0.000000 -1.000000
vn 0.707107 0.000000 -0.707107
vn -0.707107 0.000000 -0.707107
vn -0.707107 0.000000 -0.707107
vn -1.000000 0.000000 0.000000
vn -1.000000 0.000000 0.000000
vn -0.707106 0.000000 0.707107
vn -0.707106 0.000000 0.707107
vn 0.000000 0.000000 1.000000
vn 0.000000 0.000000 1.000000
vn 0.707106 0.000000 0.707107
vn 0.707106 0.000000 0.707107
vn 1.000000 0.000000 -0.000000
vn 1.000000 0.000000 -0.000000
vn 0.707107 0.000000 -0.707107
vn 0.000000 0.000000 -1.000000
vn 0.000000 0.000000 -1.000000
vn 0.707107 0.000000 -0.707107
vn -0.707107 0.000000 -0.707107
vn -0.707107 0.000000 -0.707107
vn -1.000000 0.000000 0.000000
vn -1.000000 0.000000 0.000000
vn -0.707106 0.000000 0.707107
vn -0.707106 0.000000 0.707107
vn 0.000000 0.000000 1.000000
vn 0.000000 0.000000 1.000000
vn 0.707106 0.000000 0.707107
vn 0.707106 0.000000 0.707107
vn 1.000000 0.000000 0.000000
vn 1.000000 0.000000 0.000000
vn -0.500000 0.000000 0.866025
vn -0.500000 0.000000 0.866025
vn -0.500000 0.000000 0.866025
vn -0.500000 0.000000 0.866025
vn 0.965926 0.000000 -0.258819
vn 0.965926 0.000000 -0.258819
vn 0.965926 0.000000 -0.258819
vn 0.965926 0.000000 -0.258819
vn -0.258819 0.000000 -0.965926
vn -0.258819 0.000000 -0.965926
vn -0.258819 0.000000 -0.965926
vn -0.258819 0.000000 -0.965926
vn 0.000000 1.000000 0.000000
vn 0.000000 1.000000 -0.000000
vn 0.000000 1.000000 -0.000000
vn 0.000000 -1.000000 -0.000000
vn 0.000000 -1.000000 -0.000000
vn 0.000000 -1.000000 0.000000
vn 0.000000 -1.000000 0.000000
vn 0.000000 -1.000000 -0.000000
vn 0.000000 1.000000 0.000000
vn 0.000000 1.000000 -0.000000
vn -0.087736 0.000000 -0.996144
vn -0.087736 0.000000 -0.996144
vn -0.087736 0.000000 -0.996144
vn -0.087736 0.000000 -0.996144
vn 0.000000 -1.000000 -0.000000
vn 0.000000 -1.000000 -0.000000
vn 0.000000 -1.000000 -0.000000
vn 0.091570 0.000000 0.995799
vn 0.091570 0.000000 0.995799
vn 0.091570 0.000000 0.995799
vn 0.091570 0.000000 0.995799
vn 0.000000 1.000000 0.000000
vn 0.000000 1.000000 0.000000
vn -0.879874 0.000000 0.475207
vn -0.879874 0.000000 0.475207
vn -0.879874 0.000000 0.475207
vn -0.879874 0.000000 0.475207
vn 0.873317 0.000000 -0.487153
vn 0.873317 0.000000 -0.487153
vn 0.873317 0.000000 -0.487153
vn 0.873317 0.000000 -0.487153
vn -0.498005 0.000000 0.867175
vn -0.498005 0.000000 0.867175
vn -0.498005 0.000000 0.867175
vn -0.498005 0.000000 0.867175
vn 0.087174 0.000000 0.996193
vn 0.087174 0.000000 0.996193
vn 0.087174 0.000000 0.996193
vn 0.087174 0.000000 0.996193
vn -0.087736 0.000000 -0.996144
vn -0.087736 0.000000 -0.996144
vn -0.087736 0.000000 -0.996144
vn -0.087736 0.000000 -0.996144
vn 0.873317 -0.000000 -0.487153
vn 0.873317 0.000000 -0.487153
vn 0.873317 0.000000 -0.487153
vn 0.873317 -0.000000 -0.487153
vn -0.286646 0.000000 -0.958037
vn -0.286646 0.000000 -0.958037
vn -0.286646 0.000000 -0.958037
vn -0.286646 0.000000 -0.958037
vn -0.286646 0.000000 -0.958037
vn -0.286646 0.000000 -0.958037
vn -0.877638 0.000000 0.479325
vn -0.877638 0.000000 0.479325
vn -0.877638 0.000000 0.479325
vn -0.877638 0.000000 0.479325
vn 0.000000 1.000000 0.000001
vn 0.000000 1.000000 0.000001
vn 0.000000 1.000000 0.000000
vn 0.000000 1.000000 0.000000
vn 0.000000 1.000000 0.000000
vn 0.000000 1.000000 0.000000
vn 0.971181 0.000000 -0.238345
vn 0.971181 0.000000 -0.238345
vn 0.971181 0.000000 -0.238345
vn 0.971181 0.000000 -0.238345
vn 0.971181 0.000000 -0.238345
vn 0.971181 0.000000 -0.238345
vn 0.000000 1.000000 0.000001
vn 0.000000 1.000000 0.000001
vn 0.000000 -1.000000 0.000000
vn 0.000000 -1.000000 0.000000
vn 0.000000 -1.000000 0.000000
vn -0.087736 -0.000000 -0.996144
vn -0.087736 -0.000000 -0.996144
vn -0.087736 0.000000 -0.996144
vn -0.087736 0.000000 -0.996144
vn -0.087736 -0.000000 -0.996144
vn -0.087736 -0.000000 -0.996144
vn 0.873317 -0.000000 -0.487153
vn 0.873317 0.000000 -0.487153
vn 0.873317 0.000000 -0.487153
vn 0.873317 0.000000 -0.487153
vn 0.873317 0.000000 -0.487153
vn 0.873317 -0.000000 -0.487153
vn 0.996144 0.000000 -0.087736
vn 0.996144 0.000000 -0.087736
vn 0.996144 0.000000 -0.087736
vn 0.996144 0.000000 -0.087736
vn 0.000000 1.000000 0.000000
vn 0.000000 1.000000 0.000000
vn 0.000000 1.000000 0.000000
vn 0.000000 1.000000 0.000000
vn -0.996144 0.000000 0.087737
vn -0.996144 0.000000 0.087737
vn -0.996144 0.000000 0.087737
vn -0.996144 0.000000 0.087737
vn 0.000000 -1.000000 0.000000
vn 0.000000 -1.000000 0.000000
vn 0.000000 -1.000000 0.000000
vn 0.000000 -1.000000 0.000000
vn -0.487153 0.000000 -0.873317
vn -0.487153 0.000000 -0.873317
vn -0.487153 0.000000 -0.873317
vn -0.487153 0.000000 -0.873317
vn 0.000000 -1.000000 0.000000
vn 0.000000 -1.000000 0.000000
vn 0.000000 -1.000000 0.000000
vn 0.000000 -1.000000 0.000000
vn 0.487153 0.000000 0.873317
vn 0.487153 0.000000 0.873317
vn 0.487153 0.000000 0.873317
vn 0.487153 0.000000 0.873317
vn 0.000000 1.000000 0.000000
vn 0.000000 1.000000 0.000000
vn 0.000000 1.000000 0.000000
vn 0.000000 1.000000 0.000000
vn -0.499998 -0.000000 0.866027
vn -0.499998 -0.000000 0.866027
vn -0.499998 -0.000000 0.866027
vn -0.499998 -0.000000 0.866027
vn -0.087736 0.000000 -0.996144
vn -0.087736 0.000000 -0.996144
vn -0.087736 0.000000 -0.996144
vn -0.087736 0.000000 -0.996144
vn 0.965926 0.000000 -0.258819
vn 0.965926 0.000000 -0.258819
vn 0.969967 0.000000 -0.243236
vn 0.969967 0.000000 -0.243236
vn 0.091571 -0.000000 0.995799
vn 0.091571 -0.000000 0.995799
vn 0.091571 -0.000000 0.995799
vn 0.091571 -0.000000 0.995799
vn -0.879874 0.000001 0.475208
vn -0.879874 0.000001 0.475208
vn -0.879874 0.000001 0.475208
vn -0.879874 0.000001 0.475208
vn -0.280024 0.000000 -0.959993
vn -0.280024 0.000000 -0.959993
vn -0.258819 0.000000 -0.965926
vn -0.258819 0.000000 -0.965926
vn 0.873317 0.000000 -0.487153
vn 0.873317 0.000000 -0.487153
vn 0.873317 0.000000 -0.487153
vn 0.873317 0.000000 -0.487153
vn 0.000000 -1.000000 0.000002
vn 0.000000 -1.000000 0.000002
vn 0.000000 -1.000000 -0.000001
vn 0.000000 -1.000000 -0.000001
vn 0.000000 1.000000 -0.000001
vn 0.000000 1.000000 0.000002
vn 0.000000 -1.000000 0.000004
vn 0.000000 -1.000000 0.000004
vn 0.000000 1.000000 0.000004
vn 0.995799 0.000000 -0.091570
vn 0.995799 0.000000 -0.091570
vn 0.000000 -1.000000 0.000000
vn 0.000000 -1.000000 0.000000
vn -0.475206 0.000000 -0.879875
vn -0.475206 0.000000 -0.879875
vn 0.000000 1.000000 0.000000
vn -0.500000 0.000000 0.866026
vn -0.500000 0.000000 0.866026
vn -0.500000 0.000000 0.866026
vn -0.500000 0.000000 0.866026
vn 0.965926 0.000000 -0.258819
vn 0.965926 0.000000 -0.258819
vn 0.965926 0.000000 -0.258819
vn 0.965926 0.000000 -0.258819
vn -0.258819 0.000000 -0.965926
vn -0.258819 0.000000 -0.965926
vn -0.258819 0.000000 -0.965926
vn -0.258819 0.000000 -0.965926
vn 0.000000 -1.000000 0.000000
vn 0.000000 -1.000000 0.000000
vn 0.000000 -1.000000 0.000000
vn 0.000000 1.000000 -0.000000
vn 0.000000 1.000000 0.000000
vn 0.000000 1.000000 -0.000000
vn 0.000000 1.000000 -0.000000
vn 0.000000 1.000000 -0.000000
vn 0.000000 -1.000000 0.000000
vn 0.000000 -1.000000 0.000000
vn -0.087736 0.000000 -0.996144
vn -0.087736 0.000000 -0.996144
vn -0.087736 0.000000 -0.996144
vn -0.087736 0.000000 -0.996144
vn 0.000000 1.000000 0.000000
vn 0.000000 1.000000 0.000000
vn 0.000000 1.000000 0.000000
vn 0.091570 0.000000 0.995799
vn 0.091570 0.000000 0.995799
vn 0.091570 0.000000 0.995799
vn 0.091570 0.000000 0.995799
vn 0.000000 -1.000000 0.000000
vn 0.000000 -1.000000 0.000000
vn -0.879874 0.000000 0.475207
vn -0.879874 0.000000 0.475207
vn -0.879874 0.000000 0.475207
vn -0.879874 0.000000 0.475207
vn 0.873317 0.000000 -0.487153
vn 0.873317 0.000000 -0.487153
vn 0.873317 0.000000 -0.487153
vn 0.873317 0.000000 -0.487153
vn -0.498004 0.000000 0.867175
vn -0.498004 0.000000 0.867175
vn -0.498004 0.000000 0.867175
vn -0.498004 0.000000 0.867175
vn 0.087174 0.000000 0.996193
vn 0.087174 0.000000 0.996193
vn 0.087174 0.000000 0.996193
vn 0.087174 0.000000 0.996193
vn -0.087736 -0.000000 -0.996144
vn -0.087736 -0.000000 -0.996144
vn -0.087736 0.000000 -0.996144
vn -0.087736 0.000000 -0.996144
vn 0.873317 0.000000 -0.487153
vn 0.873317 0.000000 -0.487153
vn 0.873317 0.000000 -0.487153
vn 0.873317 0.000000 -0.487153
vn -0.286646 0.000000 -0.958037
vn -0.286646 0.000000 -0.958037
vn -0.286646 0.000000 -0.958037
vn -0.286646 0.000000 -0.958037
vn -0.286646 0.000000 -0.958037
vn -0.286646 0.000000 -0.958037
vn -0.877638 0.000000 0.479325
vn -0.877638 0.000000 0.479325
vn -0.877638 0.000000 0.479325
vn -0.877638 0.000000 0.479325
vn 0.000000 -1.000000 -0.000000
vn 0.000000 -1.000000 -0.000000
vn 0.000000 -1.000000 -0.000000
vn 0.000000 -1.000000 -0.000000
vn 0.000000 -1.000000 -0.000000
vn 0.000000 -1.000000 -0.000000
vn 0.971181 0.000000 -0.238345
vn 0.971181 0.000000 -0.238345
vn 0.971181 0.000000 -0.238345
vn 0.971181 0.000000 -0.238345
vn 0.971181 0.000000 -0.238345
vn 0.971181 0.000000 -0.238345
vn 0.000000 -1.000000 -0.000000
vn 0.000000 -1.000000 -0.000000
vn 0.000000 1.000000 0.000000
vn 0.000000 1.000000 0.000000
vn 0.000000 1.000000 0.000000
vn -0.087736 0.000000 -0.996144
vn -0.087736 -0.000000 -0.996144
vn -0.087736 0.000000 -0.996144
vn -0.087736 -0.000000 -0.996144
vn -0.087736 0.000000 -0.996144
vn -0.087736 0.000000 -0.996144
vn 0.873317 -0.000000 -0.487153
vn 0.873317 -0.000000 -0.487153
vn 0.873317 0.000000 -0.487153
vn 0.873317 -0.000000 -0.487153
vn 0.873317 -0.000000 -0.487153
vn 0.873317 0.000000 -0.487153
vn 0.996144 0.000000 -0.087736
vn 0.996144 0.000000 -0.087736
vn 0.996144 0.000000 -0.087736
vn 0.996144 0.000000 -0.087736
vn 0.000000 -1.000000 -0.000000
vn 0.000000 -1.000000 -0.000000
vn 0.000000 -1.000000 -0.000000
vn 0.000000 -1.000000 -0.000000
vn -0.996144 0.000000 0.087737
vn -0.996144 0.000000 0.087737
vn -0.996144 0.000000 0.087737
vn -0.996144 0.000000 0.087737
vn 0.000000 1.000000 0.000000
vn 0.000000 1.000000 0.000000
vn 0.000000 1.000000 0.000000
vn 0.000000 1.000000 0.000000
vn -0.487153 0.000000 -0.873317
vn -0.487153 0.000000 -0.873317
vn -0.487153 0.000000 -0.873317
vn -0.487153 0.000000 -0.873317
vn 0.000000 1.000000 -0.000000
vn 0.000000 1.000000 -0.000000
vn 0.000000 1.000000 -0.000000
vn 0.000000 1.000000 -0.000000
vn 0.487153 0.000000 0.873317
vn 0.487153 0.000000 0.873317
vn 0.487153 0.000000 0.873317
vn 0.487153 0.000000 0.873317
vn 0.000000 -1.000000 0.000000
vn 0.000000 -1.000000 0.000000
vn 0.000000 -1.000000 0.000000
vn 0.000000 -1.000000 0.000000
vn -0.500000 0.000000 0.866026
vn -0.500000 0.000000 0.866025
vn -0.500000 0.000000 0.866026
vn -0.500000 0.000000 0.866025
vn -0.087736 0.000000 -0.996144
vn -0.087736 0.000000 -0.996144
vn -0.087736 0.000000 -0.996144
vn -0.087736 0.000000 -0.996144
vn 0.965926 0.000000 -0.258819
vn 0.969967 0.000000 -0.243236
vn 0.969967 0.000000 -0.243236
vn 0.965926 0.000000 -0.258819
vn 0.091570 0.000000 0.995799
vn 0.091570 0.000000 0.995799
vn 0.091570 0.000000 0.995799
vn 0.091570 0.000000 0.995799
vn -0.879874 -0.000001 0.475207
vn -0.879874 -0.000001 0.475207
vn -0.879874 -0.000001 0.475207
vn -0.879874 -0.000001 0.475207
vn -0.280024 0.000000 -0.959993
vn -0.258819 0.000000 -0.965926
vn -0.258819 0.000000 -0.965926
vn -0.280024 0.000000 -0.959993
vn 0.873317 0.000000 -0.487153
vn 0.873317 0.000000 -0.487153
vn 0.873317 0.000000 -0.487153
vn 0.873317 0.000000 -0.487153
vn 0.000000 1.000000 -0.000000
vn 0.000000 1.000000 0.000000
vn 0.000000 1.000000 0.000000
vn 0.000000 1.000000 -0.000000
vn 0.000000 -1.000000 0.000000
vn 0.000000 -1.000000 0.000000
vn 0.000000 1.000000 -0.000000
vn 0.000000 1.000000 -0.000000
vn 0.000000 -1.000000 0.000000
vn 0.995799 0.000000 -0.091570
vn 0.995799 0.000000 -0.091570
vn 0.000000 1.000000 0.000000
vn 0.000000 1.000000 0.000000
vn -0.475206 0.000000 -0.879875
vn -0.475206 0.000000 -0.879875
vn 0.000000 -1.000000 0.000000
vn 0.707107 0.000000 -0.707107
vn 0.000000 0.000000 -1.000000
vn 0.000000 0.000000 -1.000000
vn 0.707107 0.000000 -0.707107
vn -0.707107 0.000000 -0.707107
vn -0.707107 0.000000 -0.707107
vn -1.000000 0.000000 0.000000
vn -1.000000 0.000000 0.000000
vn -0.707106 0.000000 0.707107
vn -0.707106 0.000000 0.707107
vn 0.000000 0.000000 1.000000
vn 0.000000 0.000000 1.000000
vn 0.707106 0.000000 0.707107
vn 0.707106 0.000000 0.707107
vn 1.000000 0.000000 -0.000000
vn 1.000000 0.000000 -0.000000
vn 0.707107 0.000000 -0.707107
vn 0.000000 0.000000 -1.000000
vn 0.000000 0.000000 -1.000000
vn 0.707107 0.000000 -0.707107
vn -0.707107 0.000000 -0.707107
vn -0.707107 0.000000 -0.707107
vn -1.000000 0.000000 0.000000
vn -1.000000 0.000000 0.000000
vn -0.707107 0.000000 0.707107
vn -0.707107 0.000000 0.707107
vn 0.000000 0.000000 1.000000
vn 0.000000 0.000000 1.000000
vn 0.707107 0.000000 0.707107
vn 0.707107 0.000000 0.707107
vn 1.000000 0.000000 0.000000
vn 1.000000 0.000000 0.000000
vn 0.707107 0.000000 -0.707107
vn 0.000000 0.000000 -1.000000
vn 0.000000 0.000000 -1.000000
vn 0.707107 0.000000 -0.707107
vn -0.707107 0.000000 -0.707107
vn -0.707107 0.000000 -0.707107
vn -1.000000 0.000000 0.000000
vn -1.000000 0.000000 0.000000
vn -0.707107 0.000000 0.707107
vn -0.707107 0.000000 0.707107
vn 0.000000 0.000000 1.000000
vn 0.000000 0.000000 1.000000
vn 0.707107 0.000000 0.707107
vn 0.707107 0.000000 0.707107
vn 1.000000 0.000000 0.000000
vn 1.000000 0.000000 0.000000
s 1
g pCylinder9
usemtl initialShadingGroup
f 1/16/1 2/17/2 10/18/3 9/3/4
f 2/1/2 3/4/5 11/5/6 10/2/3
f 3/4/5 4/6/7 12/7/8 11/5/6
f 4/6/7 5/8/9 13/9/10 12/7/8
f 5/8/9 6/10/11 14/11/12 13/9/10
f 6/10/11 7/12/13 15/13/14 14/11/12
f 7/12/13 8/14/15 16/15/16 15/13/14
f 8/14/15 1/16/1 9/3/4 16/15/16
s 2
f 17/19/17 18/20/18 26/21/19 25/22/20
f 18/23/18 19/24/21 27/25/22 26/26/19
f 19/24/21 20/27/23 28/28/24 27/25/22
f 20/27/23 21/29/25 29/30/26 28/28/24
f 21/29/25 22/31/27 30/32/28 29/30/26
f 22/31/27 23/33/29 31/34/30 30/32/28
f 23/33/29 24/35/31 32/36/32 31/34/30
f 24/35/31 17/19/17 25/22/20 32/36/32
s 3
f 33/37/33 34/38/34 42/39/35 41/40/36
f 34/41/34 35/42/37 43/43/38 42/44/35
f 35/42/37 36/45/39 44/46/40 43/43/38
f 36/45/39 37/47/41 45/48/42 44/46/40
f 37/47/41 38/49/43 46/50/44 45/48/42
f 38/49/43 39/51/45 47/52/46 46/50/44
f 39/51/45 40/53/47 48/54/48 47/52/46
f 40/53/47 33/37/33 41/40/36 48/54/48
s off
f 49/55/49 52/58/50 53/57/51 50/56/52
f 55/59/53 58/62/54 57/61/55 56/60/56
f 59/63/57 62/66/58 61/65/59 60/64/60
s 4
f 95/67/61 96/69/62 94/68/63
s 5
f 65/70/64 72/74/65 73/73/66 64/72/67 63/71/68
s 4
f 95/67/61 98/76/69 97/75/70 96/69/62
s off
f 86/77/71 89/80/72 88/79/73 87/78/74
s 5
f 66/81/75 75/83/76 72/74/65 65/70/64 63/71/68 67/82/77
s off
f 53/57/78 58/85/79 55/84/80 50/56/81
s 4
f 96/69/62 100/87/82 99/86/83 94/68/63
s off
f 49/88/84 60/91/85 61/90/86 52/89/87
f 91/92/88 93/95/89 92/94/90 90/93/91
f 70/96/92 73/99/93 72/98/94 71/97/95
f 71/97/96 72/98/97 75/101/98 74/100/99
s 6
f 57/102/100 67/105/101 63/104/102 54/103/103
s 7
f 54/106/104 63/109/105 68/108/106 62/107/107
s off
f 69/110/108 77/113/109 76/112/110 61/65/111 62/66/112 68/111/113
f 76/114/114 77/117/115 73/116/116 70/115/117
s 8
f 52/118/118 70/121/119 71/120/120 53/119/121
f 53/119/121 71/120/120 74/123/122 58/122/123
s off
f 66/124/124 67/127/125 57/61/126 58/62/127 74/126/128 75/125/129
s 8
f 61/128/130 76/129/131 70/121/119 52/118/118
s 5
f 69/130/132 68/132/133 63/71/68 64/72/67 73/73/66 77/131/134
s 6
f 51/133/135 78/135/136 79/134/137 54/103/103
f 54/103/103 79/134/137 80/136/138 57/102/100
f 57/102/100 80/136/138 81/138/139 56/137/140
f 56/137/140 81/138/139 78/135/136 51/133/135
s 7
f 54/106/104 83/141/141 82/140/142 51/139/143
f 51/139/143 82/140/142 84/143/144 59/142/145
f 59/142/145 84/143/144 85/144/146 62/107/107
f 62/107/107 85/144/146 83/141/141 54/106/104
s off
f 78/145/147 86/148/148 87/147/149 79/146/150
f 79/149/151 87/152/152 88/151/153 80/150/154
f 80/153/155 88/156/156 89/155/157 81/154/158
f 81/157/159 89/160/160 86/159/161 78/158/162
f 83/161/163 91/164/164 90/163/165 82/162/166
f 82/165/167 90/168/168 92/167/169 84/166/170
f 84/169/171 92/172/172 93/171/173 85/170/174
f 85/173/175 93/176/176 91/175/177 83/174/178
f 102/177/179 104/180/180 103/179/181 101/178/182
f 51/133/183 96/182/184 97/181/185 56/137/186
s 10
f 56/60/187 97/184/188 98/183/189 55/59/190
s off
f 105/185/191 106/186/192 104/180/193 102/177/194
f 101/187/195 103/190/196 108/189/197 107/188/198
s 11
f 60/64/199 99/192/200 100/191/201 59/63/202
s off
f 59/142/203 100/194/204 96/193/205 51/139/206
s 12
f 50/195/207 102/198/208 101/197/209 49/196/210
s 4
f 94/68/63 103/200/211 104/199/212 95/67/61
s 12
f 55/201/213 105/202/214 102/198/208 50/195/207
s 4
f 95/67/61 104/199/212 106/203/215 98/76/69
s 10
f 98/183/189 106/205/216 105/204/217 55/59/190
s 12
f 49/196/210 101/197/209 107/207/218 60/206/219
s 11
f 60/64/199 107/209/220 108/208/221 99/192/200
s 4
f 99/86/83 108/210/222 103/200/211 94/68/63
s off
f 109/211/223 110/212/224 113/213/225 112/214/226
f 115/215/227 116/216/228 117/217/229 118/218/230
f 119/219/231 120/220/232 121/221/233 122/222/234
s 13
f 155/223/235 154/224/236 156/225/237
s 14
f 125/226/238 123/227/239 124/228/240 133/229/241 132/230/242
s 13
f 155/223/235 156/225/237 157/231/243 158/232/244
s off
f 146/233/245 147/234/246 148/235/247 149/236/248
s 14
f 126/237/249 127/238/250 123/227/239 125/226/238 132/230/242 135/239/251
s off
f 113/213/252 110/212/253 115/240/254 118/241/255
s 13
f 156/225/237 154/224/236 159/242/256 160/243/257
s off
f 109/244/258 112/245/259 121/246/260 120/247/261
f 151/248/262 150/249/263 152/250/264 153/251/265
f 130/252/266 131/253/267 132/254/268 133/255/269
f 131/253/270 134/256/271 135/257/272 132/254/273
s 15
f 117/258/274 114/259/275 123/260/276 127/261/277
s 16
f 114/262/278 122/263/279 128/264/280 123/265/281
s off
f 129/266/282 128/267/283 122/222/284 121/221/285 136/268/286 137/269/287
f 136/270/288 130/271/289 133/272/290 137/273/291
s 17
f 112/274/292 113/275/293 131/276/294 130/277/295
f 113/275/293 118/278/296 134/279/297 131/276/294
s off
f 126/280/298 135/281/299 134/282/300 118/218/301 117/217/302 127/283/303
s 17
f 121/284/304 112/274/292 130/277/295 136/285/305
s 14
f 129/286/306 137/287/307 133/229/241 124/228/240 123/227/239 128/288/308
s 15
f 111/289/309 114/259/275 139/290/310 138/291/311
f 114/259/275 117/258/274 140/292/312 139/290/310
f 117/258/274 116/293/313 141/294/314 140/292/312
f 116/293/313 111/289/309 138/291/311 141/294/314
s 16
f 114/262/278 111/295/315 142/296/316 143/297/317
f 111/295/315 119/298/318 144/299/319 142/296/316
f 119/298/318 122/263/279 145/300/320 144/299/319
f 122/263/279 114/262/278 143/297/317 145/300/320
s off
f 138/301/321 139/302/322 147/303/323 146/304/324
f 139/305/325 140/306/326 148/307/327 147/308/328
f 140/309/329 141/310/330 149/311/331 148/312/332
f 141/313/333 138/314/334 146/315/335 149/316/336
f 143/317/337 142/318/338 150/319/339 151/320/340
f 142/321/341 144/322/342 152/323/343 150/324/344
f 144/325/345 145/326/346 153/327/347 152/328/348
f 145/329/349 143/330/350 151/331/351 153/332/352
f 162/333/353 161/334/354 163/335/355 164/336/356
f 111/289/357 116/293/358 157/337/359 156/338/360
s 19
f 116/216/361 115/215/362 158/339/363 157/340/364
s off
f 165/341/365 162/333/366 164/336/367 166/342/368
f 161/343/369 167/344/370 168/345/371 163/346/372
s 20
f 120/220/373 119/219/374 160/347/375 159/348/376
s off
f 119/298/377 111/295/378 156/349/379 160/350/380
s 21
f 110/351/381 109/352/382 161/353/383 162/354/384
s 13
f 154/224/236 155/223/235 164/355/385 163/356/386
s 21
f 115/357/387 110/351/381 162/354/384 165/358/388
s 13
f 155/223/235 158/232/244 166/359/389 164/355/385
s 19
f 158/339/363 115/215/362 165/360/390 166/361/391
s 21
f 109/352/382 120/362/392 167/363/393 161/353/383
s 20
f 120/220/373 159/348/376 168/364/394 167/365/395
s 13
f 159/242/256 154/224/236 163/356/386 168/366/396
s 22
f 169/367/397 170/368/398 178/369/399 177/370/400
f 170/371/398 171/372/401 179/373/402 178/374/399
f 171/372/401 172/375/403 180/376/404 179/373/402
f 172/375/403 173/377/405 181/378/406 180/376/404
f 173/377/405 174/379/407 182/380/408 181/378/406
f 174/379/407 175/381/409 183/382/410 182/380/408
f 175/381/409 176/383/411 184/384/412 183/382/410
f 176/383/411 169/367/397 177/370/400 184/384/412
s 23
f 185/385/413 186/386/414 194/387/415 193/388/416
f 186/389/414 187/390/417 195/391/418 194/392/415
f 187/390/417 188/393/419 196/394/420 195/391/418
f 188/393/419 189/395/421 197/396/422 196/394/420
f 189/395/421 190/397/423 198/398/424 197/396/422
f 190/397/423 191/399/425 199/400/426 198/398/424
f 191/399/425 192/401/427 200/402/428 199/400/426
f 192/401/427 185/385/413 193/388/416 200/402/428
s 24
f 201/403/429 202/404/430 210/405/431 209/406/432
f 202/407/430 203/408/433 211/409/434 210/410/431
f 203/408/433 204/411/435 212/412/436 211/409/434
f 204/411/435 205/413/437 213/414/438 212/412/436
f 205/413/437 206/415/439 214/416/440 213/414/438
f 206/415/439 207/417/441 215/418/442 214/416/440
f 207/417/441 208/419/443 216/420/444 215/418/442
f 208/419/443 201/403/429 209/406/432 216/420/444
